<?xml version="1.0" encoding="utf-8"?>
<!-- Generator: Adobe Illustrator 24.3.0, SVG Export Plug-In . SVG Version: 6.00 Build 0)  -->
<svg version="1.1" id="Layer_1" xmlns="http://www.w3.org/2000/svg" xmlns:xlink="http://www.w3.org/1999/xlink" x="0px" y="0px"
	 viewBox="0 0 566.9 155.9" style="enable-background:new 0 0 566.9 155.9;" xml:space="preserve">
<style type="text/css">
	.st0{fill:#AE1022;}
	.st1{fill:#1D1D1B;}
	.st2{fill-rule:evenodd;clip-rule:evenodd;fill:#1D1D1B;}
	.st3{fill-rule:evenodd;clip-rule:evenodd;}
	.st4{fill:#FFFFFF;}
	.st5{fill-rule:evenodd;clip-rule:evenodd;fill:#FFFFFF;}
</style>
<path class="st4" d="M78,14.2c-35.2,0-63.8,28.6-63.8,63.8c0,35.2,28.6,63.8,63.8,63.8c35.2,0,63.8-28.6,63.8-63.8
	C141.7,42.7,113.2,14.2,78,14.2z M99.2,88.6H88.6v10.6c0,5.9-4.8,10.6-10.6,10.6c-5.9,0-10.6-4.8-10.6-10.6V88.6H56.7
	c-5.9,0-10.6-4.8-10.6-10.6c0-5.9,4.8-10.6,10.6-10.6h10.6V56.7c0-5.9,4.8-10.6,10.6-10.6c5.9,0,10.6,4.8,10.6,10.6v10.6h10.6
	c5.9,0,10.6,4.8,10.6,10.6C109.8,83.8,105.1,88.6,99.2,88.6z"/>
<rect x="170.1" y="106.3" class="st4" width="365.7" height="2.6"/>
<g>
	<path class="st4" d="M544.7,29.4c-3.9,0-7,3.2-7,7.1c0,3.9,3.1,7.1,7,7.1c3.9,0,7-3.2,7-7.1C551.7,32.6,548.5,29.4,544.7,29.4z
		 M544.7,28.3c4.4,0,8.1,3.7,8.1,8.2c0,4.5-3.6,8.2-8.1,8.2c-4.5,0-8.1-3.7-8.1-8.2C536.6,32,540.2,28.3,544.7,28.3z M547,41.3
		l-2.5-4c-0.3,0-0.7,0-1.3-0.1v4.1H542v-9.4l1-0.1c0.6,0,1,0,1.3,0c2.2,0,3.3,0.9,3.3,2.7c0,0.6-0.2,1.1-0.5,1.6
		c-0.4,0.5-0.8,0.8-1.3,0.9l2.7,4.3H547z M543.2,33v3.1c0.3,0,0.6,0.1,0.9,0.1c0.8,0,1.3-0.1,1.6-0.4c0.3-0.2,0.5-0.7,0.5-1.3
		c0-0.5-0.2-0.9-0.6-1.1c-0.4-0.2-1-0.3-1.7-0.3C543.8,33,543.6,33,543.2,33z"/>
	<polygon class="st5" points="227.3,99.2 222.8,57.9 203.3,99.2 199.9,99.2 178.7,57.9 175,99.2 170.1,99.2 175.8,44.7 180.3,44.7 
		202.8,89.2 224,44.7 228.6,44.7 234.8,99.2 	"/>
	<path class="st5" d="M291,94.8c1.1,0.2,2.4,0.3,3.9,0.4c1.4,0.1,3,0.2,4.9,0.2c3.6,0,6.8-0.2,9.7-0.8c2.9-0.6,5.2-1.5,7-2.7
		c0.9-0.6,1.8-1.4,2.6-2.4c0.9-1,1.6-2.4,2.3-4.1c0.7-1.7,1.2-3.7,1.6-6.1c0.4-2.4,0.6-5.3,0.6-8.6c0-4.1-0.6-7.6-2-10.5
		c-1.3-2.8-3-5.1-5.2-6.9c-2.1-1.7-4.6-3-7.4-3.7c-2.8-0.8-5.7-1.1-8.7-1.1c-1.3,0-2.4,0-3.2,0c-0.9,0-1.6,0.1-2.3,0.1
		c-0.7,0.1-1.3,0.1-1.9,0.2c-0.6,0.1-1.2,0.1-1.9,0.2V94.8z M283.3,45.7c1.2-0.1,2.6-0.3,4.2-0.4c1.6-0.1,3.3-0.2,5-0.3
		c1.7-0.1,3.5-0.2,5.3-0.2c1.8-0.1,3.5-0.1,5.2-0.1c4.3,0,8.3,0.5,11.8,1.5c3.5,1,6.6,2.6,9.1,4.7c2.5,2.1,4.5,4.7,5.8,7.9
		c1.4,3.2,2.1,6.9,2.1,11.1c0,4.3-0.6,8.2-1.9,11.8c-1.3,3.6-3.2,6.7-5.7,9.3c-2.5,2.6-5.7,4.6-9.4,6c-3.7,1.5-8.1,2.2-13.1,2.2
		c-3.3,0-6.6-0.1-9.8-0.3c-3.3-0.2-6.1-0.4-8.6-0.6V45.7z"/>
	<rect x="342.6" y="44.7" class="st5" width="8.1" height="54.5"/>
	<path class="st5" d="M383.3,99.2c-4,0-7.4-0.7-10.2-2c-2.8-1.3-5-3.2-6.8-5.6c-1.7-2.4-3-5.3-3.8-8.6c-0.8-3.4-1.2-7.1-1.2-11.3
		c0-5.1,0.8-9.3,2.3-12.7c1.5-3.4,3.5-6.2,5.9-8.4c2.4-2.1,5.2-3.7,8.2-4.6c3-0.9,6-1.4,9.1-1.4c1.1,0,2.4,0,3.7,0.1
		c1.4,0.1,2.7,0.2,4,0.3c1.3,0.1,2.5,0.2,3.6,0.3c1.1,0.1,2,0.2,2.7,0.4l-2,6.3c-0.7-0.2-1.7-0.4-3-0.7c-1.3-0.3-2.7-0.5-4.2-0.7
		c-1.5-0.2-3-0.4-4.4-0.6c-1.4-0.2-2.7-0.2-3.6-0.2c-2.2,0-4,0.2-5.6,0.5c-1.6,0.3-3,1-4.3,2c-1.6,1.2-2.8,3.5-3.4,6.9
		c-0.6,3.4-1,7.5-1,12.6c0,7.7,1.2,13.5,3.5,17.4c2.3,4,6.1,6,11.2,6c1.4,0,2.9-0.1,4.5-0.2c1.5-0.1,3.1-0.3,4.6-0.5
		c1.5-0.2,3-0.5,4.5-0.8c1.5-0.3,2.8-0.7,4.1-1.1v2.8c-1.3,0.6-2.8,1.2-4.3,1.6c-1.5,0.5-3.1,0.9-4.7,1.2c-1.6,0.3-3.2,0.6-4.8,0.8
		C386.4,99.1,384.8,99.2,383.3,99.2z"/>
	<path class="st5" d="M443.1,99.2l-6.5-19.5l-20,0.3l-6.9,19.2h-5.2l20.5-52.7l6.1-1.8l19.2,54.5H443.1z M435.5,76.3l-8.6-24.8
		l-9,24.8H435.5z"/>
	<path class="st5" d="M473,76.1h-7.4v22.6h-7.1V45.3c2.2-0.2,4.5-0.3,7.1-0.4c2.6-0.1,5.1-0.2,7.7-0.2c3,0,5.7,0.3,8,1
		c2.3,0.7,4.1,1.6,5.6,2.9c1.5,1.2,2.6,2.8,3.3,4.6c0.7,1.8,1.1,3.9,1.1,6.2c0,2.2-0.3,4.2-0.9,5.9c-0.6,1.7-1.4,3.2-2.4,4.5
		c-1,1.3-2.2,2.4-3.5,3.3c-1.4,0.9-2.8,1.7-4.2,2.2c1.6,2.8,3.1,5.4,4.5,7.9c1.5,2.5,2.9,4.7,4.4,6.6c1.5,1.9,3,3.4,4.5,4.5
		c1.5,1.1,3.1,1.7,4.8,1.7h0.5v2.4c-0.7,0.3-1.7,0.5-2.9,0.7c-1.2,0.2-2.4,0.3-3.5,0.3c-1.7,0-3.2-0.2-4.4-0.7
		c-1.2-0.5-2.4-1.4-3.5-2.7c-1.1-1.3-2.4-3.1-3.7-5.4c-1.3-2.3-3-5.3-4.9-8.9L473,76.1z M467.8,72.3c3.2,0,5.8-0.2,7.8-0.6
		c2-0.4,3.5-0.9,4.6-1.6c0.5-0.3,0.9-0.7,1.3-1.3c0.4-0.5,0.8-1.2,1.1-2c0.3-0.8,0.5-1.8,0.7-3c0.2-1.2,0.2-2.6,0.2-4.2
		c0-2.1-0.3-3.8-0.9-5.2c-0.6-1.4-1.4-2.6-2.5-3.5c-1.1-0.9-2.4-1.6-4-2c-1.6-0.4-3.3-0.6-5.3-0.6c-1,0-1.8,0-2.6,0.1
		c-0.7,0.1-1.6,0.1-2.7,0.2v23.7H467.8z"/>
	<polygon class="st5" points="536.1,99.2 506.9,99.2 506.9,44.7 534.8,44.7 534.3,48.7 514.4,48.9 514.4,68.2 533.2,68.5 532.7,72 
		514.4,72.4 514.4,95 536.6,95.4 	"/>
	<polygon class="st5" points="274.7,99.2 245.5,99.2 245.5,44.7 273.4,44.7 272.9,48.7 252.9,48.9 252.9,68.2 271.8,68.5 271.3,72 
		252.9,72.4 252.9,95 275.2,95.4 	"/>
</g>
<g>
	<path class="st4" d="M403,141.4l-3.4-10l-10.5,0.1l-3.7,9.9h-2.7l10.8-27l3.2-0.9l10.1,28H403z M399,129.6l-4.5-12.7l-4.7,12.7H399
		z"/>
	<path class="st4" d="M431.9,141.5l-19.2-21.3h-0.1c0,2,0.1,3.8,0.1,5.5c0,0.7,0,1.4,0,2.1c0,0.7,0,1.3,0,1.9c0,0.6,0,1.1,0,1.5
		c0,0.4,0,0.7,0,0.9v9.2h-2.4v-27.5h1.6l19.3,21.2h0c0-1.9-0.1-3.6-0.1-5.2c0-0.7,0-1.4,0-2.1c0-0.7,0-1.3,0-2s0-1.2,0-1.6
		s0-0.9,0-1.1v-9h2.4v27.4H431.9z"/>
	<path class="st4" d="M457.6,130l-6.1-0.3l0.3-1.4h9.4v11.1c-0.6,0.3-1.3,0.5-2.1,0.8c-0.8,0.3-1.7,0.5-2.7,0.7c-1,0.2-2,0.4-3,0.5
		s-2.1,0.2-3,0.2c-2,0-3.6-0.3-5-1c-1.4-0.7-2.5-1.7-3.3-2.9c-0.9-1.3-1.5-2.7-1.9-4.5c-0.4-1.7-0.6-3.7-0.6-5.8
		c0-2.1,0.3-4,0.8-5.7c0.5-1.7,1.4-3.1,2.4-4.3c1.1-1.2,2.5-2.1,4.1-2.7c1.7-0.6,3.6-0.9,5.8-0.9c0.6,0,1.2,0,1.8,0.1
		c0.7,0,1.4,0.1,2,0.2c0.7,0.1,1.3,0.2,1.9,0.2c0.6,0.1,1.1,0.2,1.5,0.2l-1,3.2c-0.5-0.1-1-0.3-1.7-0.4c-0.7-0.2-1.4-0.3-2.2-0.4
		c-0.8-0.1-1.5-0.2-2.3-0.3s-1.5-0.1-2.1-0.1c-1,0-1.9,0.1-2.8,0.2s-1.7,0.5-2.4,1.1c-0.4,0.3-0.7,0.8-1,1.5
		c-0.2,0.7-0.4,1.5-0.6,2.4c-0.1,0.9-0.2,1.8-0.3,2.9c-0.1,1-0.1,2-0.1,3c0,1.8,0.1,3.4,0.4,4.9c0.2,1.5,0.6,2.8,1.2,3.8
		c0.6,1.1,1.3,1.9,2.1,2.5c0.9,0.6,2,0.9,3.2,0.9c0.6,0,1.2,0,1.9-0.1s1.3-0.1,2-0.2c0.6-0.1,1.3-0.2,1.8-0.2
		c0.6-0.1,1.1-0.2,1.5-0.3V130z"/>
	<path class="st4" d="M492.6,127.6c0,2.2-0.3,4.1-0.8,5.9s-1.4,3.2-2.5,4.4c-1.1,1.2-2.5,2.2-4.1,2.8c-1.7,0.7-3.6,1-5.8,1
		c-2.2,0-4.2-0.3-5.8-1s-2.9-1.6-4-2.9s-1.8-2.7-2.3-4.4c-0.5-1.7-0.7-3.7-0.7-5.8c0-2.1,0.2-4,0.7-5.8c0.5-1.7,1.3-3.2,2.3-4.4
		c1-1.2,2.4-2.1,4-2.8c1.6-0.6,3.5-1,5.7-1c2.2,0,4.1,0.3,5.8,1c1.7,0.6,3,1.6,4.1,2.8c1.1,1.2,1.9,2.7,2.5,4.4
		C492.4,123.6,492.6,125.5,492.6,127.6z M488.7,127.6c0-1.7-0.2-3.3-0.5-4.8s-0.9-2.7-1.7-3.7c-0.8-1-1.7-1.8-2.9-2.4
		c-1.2-0.6-2.6-0.9-4.2-0.9c-1.4,0-2.7,0.2-3.9,0.5c-1.2,0.3-2.2,0.8-2.9,1.4c-0.4,0.3-0.7,0.8-1,1.5c-0.3,0.7-0.5,1.4-0.6,2.3
		c-0.2,0.9-0.3,1.8-0.3,2.9c-0.1,1-0.1,2.1-0.1,3.2c0,1.7,0.1,3.3,0.4,4.8s0.8,2.7,1.5,3.8s1.6,1.9,2.7,2.5c1.1,0.6,2.5,0.9,4.2,0.9
		c1.6,0,3-0.1,4.1-0.4c1.1-0.3,2.1-0.8,3-1.6c0.4-0.3,0.7-0.8,1-1.5s0.5-1.5,0.7-2.4s0.3-1.9,0.4-2.9
		C488.6,129.7,488.7,128.7,488.7,127.6z"/>
	<path class="st4" d="M498.6,141.4v-27.3h3.7v25.2h10.4l-0.3,2.1H498.6z"/>
	<path class="st4" d="M534.8,141.4l-3.4-10l-10.5,0.1l-3.7,9.9h-2.7l10.8-27l3.2-0.9l10.1,28H534.8z M530.8,129.6l-4.5-12.7
		l-4.7,12.7H530.8z"/>
</g>
</svg>
