<svg xmlns="http://www.w3.org/2000/svg" version="1.1" xmlns:xlink="http://www.w3.org/1999/xlink" xmlns:svgjs="http://svgjs.dev/svgjs" width="128" height="128" viewBox="0 0 128 128"><g transform="matrix(0.8046875,0,0,0.8046875,12.333870967741937,12.333870967741937)"><svg viewBox="0 0 155 155" data-background-color="#ffffff" preserveAspectRatio="xMidYMid meet" height="128" width="128" xmlns="http://www.w3.org/2000/svg" xmlns:xlink="http://www.w3.org/1999/xlink"><g id="tight-bounds" transform="matrix(1,0,0,1,0.25,0.25)"><svg viewBox="0 0 154.5 154.5" height="154.5" width="154.5"><g><svg></svg></g><g><svg viewBox="0 0 154.5 154.5" height="154.5" width="154.5"><g transform="matrix(1,0,0,1,57.971292806106874,47.746371)"><svg viewBox="0 0 38.55741438778626 59.00725799999999" height="59.00725799999999" width="38.55741438778626"><g><svg viewBox="0 0 38.55741438778626 59.00725799999999" height="59.00725799999999" width="38.55741438778626"><g><svg viewBox="0 0 38.55741438778626 59.00725799999999" height="59.00725799999999" width="38.55741438778626"><g id="textblocktransform"><svg viewBox="0 0 38.55741438778626 59.00725799999999" height="59.00725799999999" width="38.55741438778626" id="textblock"><g><svg viewBox="0 0 38.55741438778626 59.00725799999999" height="59.00725799999999" width="38.55741438778626"><g transform="matrix(1,0,0,1,0,0)"><svg width="38.55741438778626" viewBox="1.9 -32.75 21.400000000000002 32.75" height="59.00725799999999" data-palette-color="#ff5858"><path d="M9.6 0L1.9 0 1.9-32.75 9.7-32.75Q13.65-32.75 16.07-32.1 18.5-31.45 20.2-29.65 21.9-27.85 22.6-24.68 23.3-21.5 23.3-15.68 23.3-9.85 21.88-6.3 20.45-2.75 17.6-1.38 14.75 0 9.6 0L9.6 0ZM16-6.65Q17.15-7.95 17.57-10.23 18-12.5 18-16.43 18-20.35 17.65-22.6 17.3-24.85 16.18-26.18 15.05-27.5 13.4-27.88 11.75-28.25 8.7-28.25L8.7-28.25 7.1-28.25 7.1-4.5 8.6-4.5Q11.5-4.5 13.18-4.93 14.85-5.35 16-6.65Z" opacity="1" transform="matrix(1,0,0,1,0,0)" fill="#ff5858" class="undefined-text-0" data-fill-palette-color="primary" id="text-0"></path></svg></g></svg></g></svg></g></svg></g></svg></g></svg></g><g><path d="M49.336 33.816A19.279 19.279 0 0 1 105.164 33.816L99.843 33.816A13.957 13.957 0 0 0 54.657 33.816L49.336 33.816M49.336 120.684A19.279 19.279 0 0 0 105.164 120.684L99.843 120.684A13.957 13.957 0 0 1 54.657 120.684L49.336 120.684" fill="#ff5858" stroke="transparent" data-fill-palette-color="tertiary"></path></g></svg></g><defs></defs></svg><rect width="154.5" height="154.5" fill="none" stroke="none" visibility="hidden"></rect></g></svg></g></svg>