<svg xmlns="http://www.w3.org/2000/svg" version="1.1" xmlns:xlink="http://www.w3.org/1999/xlink" xmlns:svgjs="http://svgjs.dev/svgjs" width="1000" height="623" viewBox="0 0 1000 623"><g transform="matrix(1,0,0,1,-0.6060606060606233,0.2522267206477409)"><svg viewBox="0 0 396 247" data-background-color="#ffffff" preserveAspectRatio="xMidYMid meet" height="623" width="1000" xmlns="http://www.w3.org/2000/svg" xmlns:xlink="http://www.w3.org/1999/xlink"><g id="tight-bounds" transform="matrix(1,0,0,1,0.2400000000000091,-0.09999999999999432)"><svg viewBox="0 0 395.52 247.2" height="247.2" width="395.52"><g><svg></svg></g><g><svg viewBox="0 0 395.52 247.2" height="247.2" width="395.52"><g transform="matrix(1,0,0,1,75.54432,84.33978449902895)"><svg viewBox="0 0 244.43135999999998 78.52043100194207" height="78.52043100194207" width="244.43135999999998"><g><svg viewBox="0 0 244.43135999999998 78.52043100194207" height="78.52043100194207" width="244.43135999999998"><g><svg viewBox="0 0 244.43135999999998 78.52043100194207" height="78.52043100194207" width="244.43135999999998"><g><svg viewBox="0 0 244.43135999999998 78.52043100194207" height="78.52043100194207" width="244.43135999999998"><g id="textblocktransform"><svg viewBox="0 0 244.43135999999998 78.52043100194207" height="78.52043100194207" width="244.43135999999998" id="textblock"><g><svg viewBox="0 0 244.43135999999998 42.54003239720714" height="42.54003239720714" width="244.43135999999998"><g transform="matrix(1,0,0,1,0,0)"><svg width="244.43135999999998" viewBox="3 -33.20000076293945 193.3300018310547 33.650001525878906" height="42.54003239720714" data-palette-color="#ff5858"><path d="M9.6 0L3 0 3-32.75 9.7-32.75Q13.4-32.75 15.78-32.02 18.15-31.3 19.8-29.45 21.45-27.6 22.18-24.43 22.9-21.25 22.9-16.38 22.9-11.5 22.1-8.28 21.3-5.05 19.55-3.25 17.8-1.45 15.45-0.73 13.1 0 9.6 0L9.6 0ZM15.58-3.6Q17.7-4.7 18.82-7.73 19.95-10.75 19.95-16.38 19.95-22 18.85-25.03 17.75-28.05 15.65-29.15 13.55-30.25 9.7-30.25L9.7-30.25 5.75-30.25 5.75-2.5 9.6-2.5Q13.45-2.5 15.58-3.6ZM35.9-2.15L35.9-2.15Q37.75-2.15 39.92-3.33 42.1-4.5 43.1-5.5L43.1-5.5 43.1-11.45Q39.8-11.7 36.8-11.7 33.8-11.7 32.3-10.43 30.8-9.15 30.8-7L30.8-7Q30.8-2.15 35.9-2.15ZM35.85 0.45L35.85 0.45Q32.2 0.45 30.1-1.43 28-3.3 28-6.75 28-10.2 30.3-12.1L30.3-12.1Q32.6-14.05 36.4-14.05 40.2-14.05 43.1-13.75L43.1-13.75Q43.1-18.2 42-19.83 40.9-21.45 37.55-21.45 34.2-21.45 29.65-19.85L29.65-19.85 28.9-22.35Q33.55-24.05 37.3-24.05L37.3-24.05Q42.25-24.05 44-21.85 45.75-19.65 45.75-14.15L45.75-14.15 45.75-3.65 46.15 0.15 43.6 0.4 43.1-2.6Q41.95-1.6 39.85-0.58 37.75 0.45 35.85 0.45ZM53.8-23.75L56.35-23.75 56.45-21.75Q61.3-24.05 64.5-24.05 67.7-24.05 69.52-21.85 71.34-19.65 71.34-15.85L71.34-15.85 71.34 0 68.7 0 68.7-15.85Q68.7-18.3 67.5-19.9L67.5-19.9Q66.3-21.45 63.9-21.45 61.5-21.45 56.45-19.25L56.45-19.25 56.45 0 53.8 0 53.8-23.75ZM86.94-21.25L81.14-21.25 81.14-23.75 89.59-23.75 89.59-2.5 95.39-2.5 95.39 0 80.74 0 80.74-2.5 86.94-2.5 86.94-21.25ZM88.04-28.55Q87.14-28.55 86.52-29.18 85.89-29.8 85.89-30.78 85.89-31.75 86.52-32.33 87.14-32.9 88.04-32.9 88.94-32.9 89.52-32.35 90.09-31.8 90.09-30.8 90.09-29.8 89.52-29.18 88.94-28.55 88.04-28.55ZM111.39-30.75L105.44-30.7 105.39-33.15 114.04-33.2 114.04-2.5 120.14-2.5 120.14 0 105.24 0 105.24-2.5 111.39-2.5 111.39-30.75ZM128.89-1.15L128.89-1.15 129.54-3.75Q134.49-2.1 137.19-2.1 139.89-2.1 141.36-3.28 142.84-4.45 142.84-6.4 142.84-8.35 141.66-9.28 140.49-10.2 136.79-11.05 133.09-11.9 131.24-13.5L131.24-13.5Q129.39-15 129.39-18 129.39-21 131.66-22.58 133.94-24.15 137.54-24.15 141.14-24.15 145.34-22.55L145.34-22.55 144.64-20.2Q140.39-21.6 137.79-21.6 135.19-21.6 133.69-20.7L133.69-20.7Q132.19-19.7 132.19-18 132.19-16.3 133.51-15.35 134.84-14.4 138.64-13.45 142.44-12.5 144.04-11.03 145.64-9.55 145.64-6.4 145.64-3.25 143.49-1.4L143.49-1.4Q141.39 0.45 137.49 0.45 133.59 0.45 128.89-1.15ZM152.94-11.8Q152.94-24.05 162.49-24.05 172.04-24.05 172.04-11.8 172.04 0.45 162.49 0.45 152.94 0.45 152.94-11.8ZM162.49-21.45Q155.79-21.45 155.79-11.8 155.79-2.15 162.49-2.15 169.19-2.15 169.19-11.8 169.19-21.45 162.49-21.45ZM178.78-23.75L181.33-23.75 181.43-21.75Q186.28-24.05 189.48-24.05 192.68-24.05 194.51-21.85 196.33-19.65 196.33-15.85L196.33-15.85 196.33 0 193.68 0 193.68-15.85Q193.68-18.3 192.48-19.9L192.48-19.9Q191.28-21.45 188.88-21.45 186.48-21.45 181.43-19.25L181.43-19.25 181.43 0 178.78 0 178.78-23.75Z" opacity="1" transform="matrix(1,0,0,1,0,0)" fill="#ff5858" class="undefined-text-0" data-fill-palette-color="primary" id="text-0"></path></svg></g></svg></g><g transform="matrix(1,0,0,1,0,52.58271308541022)"><svg viewBox="0 0 244.43135999999998 25.93771791653186" height="25.93771791653186" width="244.43135999999998"><g transform="matrix(1,0,0,1,0,0)"><svg width="244.43135999999998" viewBox="2.6500000953674316 -32.150001525878906 309.08001708984375 32.80000305175781" height="25.93771791653186" data-palette-color="#ed2647"><path d="M2.65 0.4L3-2.35Q5.1-2.75 5.83-3.58 6.55-4.4 6.55-6.5L6.55-6.5 6.6-26.65Q6.6-28.2 6.23-28.78 5.85-29.35 4.85-29.35L4.85-29.35Q4.3-29.35 3.8-29.3 3.3-29.25 3.15-29.25L3.15-29.25 2.95-29.5 3.35-32.05 4.65-32 9.2-31.95Q10.9-31.95 13.05-32.02 15.2-32.1 16.05-32.15L16.05-32.15Q21.8-32.15 24.58-29.68 27.35-27.2 27.35-22.95L27.35-22.95Q27.35-20.1 25.73-17.53 24.1-14.95 21.4-13.4 18.7-11.85 15.7-11.85L15.7-11.85 11.45-11.85 11.4-7.45Q11.4-5.3 11.55-4.33 11.7-3.35 12.18-3 12.65-2.65 13.65-2.65L13.65-2.65Q14.45-2.65 15.18-2.7 15.9-2.75 16.15-2.8L16.15-2.8 16.25-2.55 15.8 0.15Q15.2 0.1 13.63 0.05 12.05 0 10.5 0L10.5 0Q8.65 0 5.7 0.15 2.75 0.3 2.65 0.4L2.65 0.4ZM16.5-14.75Q21.9-15.75 21.9-22.1L21.9-22.1Q21.9-25.65 19.85-27.3 17.8-28.95 13.4-28.95L13.4-28.95Q12.55-28.95 12.38-28.83 12.2-28.7 12.15-28.15L12.15-28.15Q11.7-22.35 11.55-15.45L11.55-15.45 16.5-14.75ZM49.7 0.6Q47.15 0.6 45.25-3L45.25-3 41.45-10 38.45-10 38.35-5.35Q38.35-3.95 38.55-3.35 38.75-2.75 39.32-2.55 39.9-2.35 41.3-2.3L41.3-2.3 41.45-2.1 41 0.15Q40.3 0.1 38.55 0.08 36.8 0.05 35.25 0.05L35.25 0.05Q33.8 0.05 32.32 0.13 30.85 0.2 30.4 0.25L30.4 0.25 30.75-2.2Q32.5-2.45 33.1-3.05 33.7-3.65 33.7-5.35L33.7-5.35 33.75-20.7Q33.75-21.85 33.45-22.25 33.15-22.65 32.4-22.65L32.4-22.65 30.95-22.6 30.75-22.85 31.1-25.05Q31.65-25.05 33.15-25 34.65-24.95 36.1-24.95L36.1-24.95Q37.7-24.95 39.47-25.03 41.25-25.1 41.95-25.15L41.95-25.15Q46.4-25.15 48.85-23.43 51.3-21.7 51.3-18.6L51.3-18.6Q51.3-16.3 49.82-14.38 48.35-12.45 45.6-11.15L45.6-11.15 49.45-5.35Q50.65-3.55 51.72-2.78 52.8-2 54.2-2L54.2-2 54.45-1.65 54.15 0.2 49.7 0.6ZM42.35-12.8Q46.15-14.25 46.15-17.85L46.15-17.85Q46.15-20.1 44.55-21.2 42.95-22.3 39.6-22.3L39.6-22.3Q39.2-22.3 39.05-22.13 38.9-21.95 38.9-21.4L38.9-21.4Q38.55-15.65 38.55-13.2L38.55-13.2 42.35-12.8ZM68.09 0.45Q64.55 0.45 61.89-1.05 59.24-2.55 57.82-5.3 56.39-8.05 56.39-11.75L56.39-11.75Q56.39-15.75 58.12-18.85 59.84-21.95 62.89-23.68 65.94-25.4 69.89-25.4L69.89-25.4Q75.34-25.4 78.55-22.15 81.75-18.9 81.75-13.3L81.75-13.3Q81.75-9.3 80-6.18 78.25-3.05 75.14-1.3 72.05 0.45 68.09 0.45L68.09 0.45ZM69.19-2.55Q72.39-2.55 74.3-4.9 76.19-7.25 76.19-11.35L76.19-11.35Q76.19-16.4 74.19-19.2 72.19-22 68.69-22L68.69-22Q65.55-22 63.72-19.68 61.89-17.35 61.89-13.25L61.89-13.25Q61.89-8.2 63.84-5.38 65.8-2.55 69.19-2.55L69.19-2.55ZM97.54 0.45Q91.89 0.45 88.62-2.83 85.34-6.1 85.34-11.75L85.34-11.75Q85.34-15.95 87.12-19.03 88.89-22.1 92.19-23.75 95.49-25.4 99.94-25.4L99.94-25.4Q101.54-25.4 103.32-25.2 105.09-25 106.37-24.75 107.64-24.5 107.99-24.45L107.99-24.45 108.29-24.05Q108.24-23.8 108.02-22.85 107.79-21.9 107.54-20.35 107.29-18.8 107.19-17.05L107.19-17.05 103.79-16.8Q103.79-17 103.84-17.57 103.89-18.15 103.89-18.9L103.89-18.9Q103.89-20.6 102.74-21.3 101.59-22 98.94-22L98.94-22Q94.94-22 92.89-19.78 90.84-17.55 90.84-13.1L90.84-13.1Q90.84-8.2 92.89-5.5 94.94-2.8 98.54-2.8L98.54-2.8Q99.74-2.8 100.74-3.05 101.74-3.3 102.29-3.55 102.84-3.8 102.99-3.9L102.99-3.9 102.99-7.8Q102.99-9 102.62-9.38 102.24-9.75 101.04-9.75L101.04-9.75 98.69-9.75 98.54-10 98.94-12.6Q99.69-12.6 100.29-12.55L100.29-12.55 104.49-12.5Q105.74-12.5 106.94-12.58 108.14-12.65 108.49-12.7L108.49-12.7 108.74-11.3Q107.79-10.65 107.49-9.45 107.19-8.25 107.19-5L107.19-5Q107.19-2.85 107.44-1.6L107.44-1.6 107.14-1.15Q106.84-1 105.59-0.63 104.34-0.25 102.22 0.1 100.09 0.45 97.54 0.45L97.54 0.45ZM133.19 0.6Q130.64 0.6 128.74-3L128.74-3 124.94-10 121.94-10 121.84-5.35Q121.84-3.95 122.04-3.35 122.24-2.75 122.81-2.55 123.39-2.35 124.79-2.3L124.79-2.3 124.94-2.1 124.49 0.15Q123.79 0.1 122.04 0.08 120.29 0.05 118.74 0.05L118.74 0.05Q117.29 0.05 115.81 0.13 114.34 0.2 113.89 0.25L113.89 0.25 114.24-2.2Q115.99-2.45 116.59-3.05 117.19-3.65 117.19-5.35L117.19-5.35 117.24-20.7Q117.24-21.85 116.94-22.25 116.64-22.65 115.89-22.65L115.89-22.65 114.44-22.6 114.24-22.85 114.59-25.05Q115.14-25.05 116.64-25 118.14-24.95 119.59-24.95L119.59-24.95Q121.19-24.95 122.97-25.03 124.74-25.1 125.44-25.15L125.44-25.15Q129.89-25.15 132.34-23.43 134.79-21.7 134.79-18.6L134.79-18.6Q134.79-16.3 133.31-14.38 131.84-12.45 129.09-11.15L129.09-11.15 132.94-5.35Q134.14-3.55 135.22-2.78 136.29-2 137.69-2L137.69-2 137.94-1.65 137.64 0.2 133.19 0.6ZM125.84-12.8Q129.64-14.25 129.64-17.85L129.64-17.85Q129.64-20.1 128.04-21.2 126.44-22.3 123.09-22.3L123.09-22.3Q122.69-22.3 122.54-22.13 122.39-21.95 122.39-21.4L122.39-21.4Q122.04-15.65 122.04-13.2L122.04-13.2 125.84-12.8ZM152.84 0.3L152.69 0.05 152.84-2.1Q154.94-2.3 155.56-2.55 156.19-2.8 156.19-3.55L156.19-3.55Q156.19-4.2 155.89-5L155.89-5 154.94-8.25Q153.89-8.3 150.99-8.3L150.99-8.3Q149.44-8.3 146.94-8.05L146.94-8.05 145.74-4.85Q145.49-3.85 145.49-3.6L145.49-3.6Q145.49-2.85 145.96-2.55 146.44-2.25 147.59-2.25L147.59-2.25 149.44-2.25 149.64-2 149.34 0.25Q148.79 0.2 146.94 0.1 145.09 0 143.44 0L143.44 0Q141.79 0 140.44 0.05 139.09 0.1 138.64 0.1L138.64 0.1 138.94-2.3Q139.94-2.45 140.56-3.03 141.19-3.6 141.74-5L141.74-5 149.29-24.75 154.59-25.4 155.04-25.25Q155.64-23.05 157.59-16.23 159.54-9.4 161.09-5L161.09-5Q161.54-3.55 162.26-2.98 162.99-2.4 164.54-2.25L164.54-2.25 164.69-2 164.39 0.1Q163.89 0.1 162.46 0.05 161.04 0 159.54 0L159.54 0Q157.44 0 155.41 0.13 153.39 0.25 152.84 0.3L152.84 0.3ZM147.84-11.05L150.94-11.05Q152.89-11.05 154.24-11.2L154.24-11.2 151.59-20.2 151.09-20.2 147.84-11.05ZM180.94 0.65Q176.44-12.2 174.09-18.05L174.09-18.05 173.79-18.05Q173.64-15.95 173.21-10.08 172.79-4.2 172.79-3.6L172.79-3.6Q172.79-2.95 173.09-2.65 173.39-2.35 174.09-2.35L174.09-2.35 175.59-2.35 175.74-2.2 175.34 0.15Q174.79 0.15 173.39 0.08 171.99 0 170.69 0L170.69 0Q169.69 0 168.44 0.13 167.19 0.25 166.79 0.3L166.79 0.3 166.99-2.1Q168.24-2.25 168.81-2.88 169.39-3.5 169.54-4.95L169.54-4.95Q169.94-8.05 170.59-14.08 171.24-20.1 171.24-20.85L171.24-20.85Q171.24-21.85 170.56-22.28 169.89-22.7 167.99-22.8L167.99-22.8 167.79-23.1 168.14-25.15Q168.74-25.1 170.24-25.03 171.74-24.95 173.14-24.95L173.14-24.95Q174.44-24.95 175.59-25 176.74-25.05 177.14-25.1L177.14-25.1Q178.94-19.3 180.61-14.48 182.29-9.65 182.79-8.35L182.79-8.35 183.09-8.35Q183.59-9.65 185.31-14.48 187.04-19.3 188.99-25L188.99-25Q189.59-25.05 190.24-25.03 190.89-25 191.39-25L191.39-25Q192.09-24.95 193.34-24.95L193.34-24.95Q194.64-25 195.89-25.08 197.14-25.15 197.59-25.2L197.59-25.2 197.74-25.05 197.44-22.9Q195.69-22.75 195.04-22.3 194.39-21.85 194.39-20.8L194.39-20.8Q194.39-19.6 194.74-14.55 195.09-9.5 195.44-5.95L195.44-5.95Q195.69-3.8 196.06-3.08 196.44-2.35 197.39-2.35L197.39-2.35 198.59-2.4 198.69-2.25 198.34 0.1Q197.94 0.1 196.76 0.05 195.59 0 194.24 0L194.24 0Q192.79 0 191.14 0.1 189.49 0.2 188.74 0.3L188.74 0.3 189.04-2.1Q190.29-2.25 190.81-2.7 191.34-3.15 191.34-4.05L191.34-4.05Q191.34-5 190.91-10.53 190.49-16.05 190.34-18.05L190.34-18.05 190.04-18.05Q186.84-10.05 183.24 0.3L183.24 0.3 180.94 0.65ZM214.78 0.3L214.63 0.05 214.78-2.1Q216.88-2.3 217.51-2.55 218.13-2.8 218.13-3.55L218.13-3.55Q218.13-4.2 217.83-5L217.83-5 216.88-8.25Q215.83-8.3 212.93-8.3L212.93-8.3Q211.38-8.3 208.88-8.05L208.88-8.05 207.68-4.85Q207.43-3.85 207.43-3.6L207.43-3.6Q207.43-2.85 207.91-2.55 208.38-2.25 209.53-2.25L209.53-2.25 211.38-2.25 211.58-2 211.28 0.25Q210.73 0.2 208.88 0.1 207.03 0 205.38 0L205.38 0Q203.73 0 202.38 0.05 201.03 0.1 200.58 0.1L200.58 0.1 200.88-2.3Q201.88-2.45 202.51-3.03 203.13-3.6 203.68-5L203.68-5 211.23-24.75 216.53-25.4 216.98-25.25Q217.58-23.05 219.53-16.23 221.48-9.4 223.03-5L223.03-5Q223.48-3.55 224.21-2.98 224.93-2.4 226.48-2.25L226.48-2.25 226.63-2 226.33 0.1Q225.83 0.1 224.41 0.05 222.98 0 221.48 0L221.48 0Q219.38 0 217.36 0.13 215.33 0.25 214.78 0.3L214.78 0.3ZM209.78-11.05L212.88-11.05Q214.83-11.05 216.18-11.2L216.18-11.2 213.53-20.2 213.03-20.2 209.78-11.05ZM240.38 0.45Q239.73 0.35 237.71 0.18 235.68 0 234.28 0L234.28 0Q232.93 0 231.31 0.18 229.68 0.35 229.18 0.4L229.18 0.4 229.43-2.05Q231.23-2.35 231.86-3.05 232.48-3.75 232.48-5.35L232.48-5.35 232.48-20.55Q232.48-21.75 232.21-22.2 231.93-22.65 231.13-22.65L231.13-22.65Q230.73-22.65 230.33-22.6 229.93-22.55 229.78-22.55L229.78-22.55 229.58-22.85 229.93-25.05Q230.48-25.05 231.93-25 233.38-24.95 234.83-24.95L234.83-24.95Q236.63-24.95 238.58-25.03 240.53-25.1 241.28-25.15L241.28-25.15Q247.48-25.15 251.06-22.03 254.63-18.9 254.63-13.45L254.63-13.45Q254.63-9.45 252.78-6.28 250.93-3.1 247.71-1.33 244.48 0.45 240.38 0.45L240.38 0.45ZM238.88-22.15Q238.18-22.15 237.93-21.95 237.68-21.75 237.63-21.2L237.63-21.2Q237.08-10.05 237.08-5.55L237.08-5.55Q237.08-3.8 237.88-3.18 238.68-2.55 241.03-2.55L241.03-2.55Q244.88-2.55 246.96-5.08 249.03-7.6 249.03-12.35L249.03-12.35Q249.03-17.3 246.51-19.73 243.98-22.15 238.88-22.15L238.88-22.15ZM269.93 0.45Q266.38 0.45 263.73-1.05 261.08-2.55 259.65-5.3 258.23-8.05 258.23-11.75L258.23-11.75Q258.23-15.75 259.95-18.85 261.68-21.95 264.73-23.68 267.78-25.4 271.73-25.4L271.73-25.4Q277.18-25.4 280.38-22.15 283.58-18.9 283.58-13.3L283.58-13.3Q283.58-9.3 281.83-6.18 280.08-3.05 276.98-1.3 273.88 0.45 269.93 0.45L269.93 0.45ZM271.03-2.55Q274.23-2.55 276.13-4.9 278.03-7.25 278.03-11.35L278.03-11.35Q278.03-16.4 276.03-19.2 274.03-22 270.53-22L270.53-22Q267.38-22 265.55-19.68 263.73-17.35 263.73-13.25L263.73-13.25Q263.73-8.2 265.68-5.38 267.63-2.55 271.03-2.55L271.03-2.55ZM306.98 0.6Q304.43 0.6 302.53-3L302.53-3 298.73-10 295.73-10 295.63-5.35Q295.63-3.95 295.83-3.35 296.03-2.75 296.6-2.55 297.18-2.35 298.58-2.3L298.58-2.3 298.73-2.1 298.28 0.15Q297.58 0.1 295.83 0.08 294.08 0.05 292.53 0.05L292.53 0.05Q291.08 0.05 289.6 0.13 288.13 0.2 287.68 0.25L287.68 0.25 288.03-2.2Q289.78-2.45 290.38-3.05 290.98-3.65 290.98-5.35L290.98-5.35 291.03-20.7Q291.03-21.85 290.73-22.25 290.43-22.65 289.68-22.65L289.68-22.65 288.23-22.6 288.03-22.85 288.38-25.05Q288.93-25.05 290.43-25 291.93-24.95 293.38-24.95L293.38-24.95Q294.98-24.95 296.75-25.03 298.53-25.1 299.23-25.15L299.23-25.15Q303.68-25.15 306.13-23.43 308.58-21.7 308.58-18.6L308.58-18.6Q308.58-16.3 307.1-14.38 305.63-12.45 302.88-11.15L302.88-11.15 306.73-5.35Q307.93-3.55 309-2.78 310.08-2 311.48-2L311.48-2 311.73-1.65 311.43 0.2 306.98 0.6ZM299.63-12.8Q303.43-14.25 303.43-17.85L303.43-17.85Q303.43-20.1 301.83-21.2 300.23-22.3 296.88-22.3L296.88-22.3Q296.48-22.3 296.33-22.13 296.18-21.95 296.18-21.4L296.18-21.4Q295.83-15.65 295.83-13.2L295.83-13.2 299.63-12.8Z" opacity="1" transform="matrix(1,0,0,1,0,0)" fill="#ed2647" class="undefined-text-1" data-fill-palette-color="secondary" id="text-1"></path></svg></g></svg></g></svg></g></svg></g></svg></g></svg></g></svg></g><g><path d="M0 123.6c0-68.262 55.338-123.6 123.6-123.6 52.658 0 97.624 32.929 115.431 79.318l-2.057 0c-17.709-45.307-61.794-77.4-113.374-77.4-67.203 0-121.682 54.479-121.682 121.682 0 67.203 54.479 121.682 121.682 121.682 51.58 0 95.664-32.093 113.374-77.4l2.057 0c-17.807 46.389-62.774 79.318-115.431 79.318-68.262 0-123.6-55.338-123.6-123.6z" fill="#ff5858" stroke="transparent" data-fill-palette-color="tertiary"></path></g></svg></g><defs></defs></svg><rect width="395.52" height="247.2" fill="none" stroke="none" visibility="hidden"></rect></g></svg></g></svg>